<svg width="129" height="52" viewBox="0 0 129 52" fill="none" xmlns="http://www.w3.org/2000/svg">
<path d="M14.6049 7.979H0.804895V0.595999H36.1329V7.979H22.3329V50H14.6049V7.979Z" fill="#4285F4"/>
<path d="M53.4125 51.104C50.8825 51.104 48.6285 50.621 46.6505 49.655C44.6725 48.643 43.1315 47.24 42.0275 45.446C40.9235 43.606 40.3715 41.536 40.3715 39.236C40.3715 35.602 41.7285 32.727 44.4425 30.611C47.2025 28.495 50.6755 27.437 54.8615 27.437C56.9315 27.437 58.7945 27.644 60.4505 28.058C62.1065 28.426 63.4175 28.84 64.3835 29.3V27.506C64.3835 25.344 63.5785 23.596 61.9685 22.262C60.3585 20.882 58.2885 20.192 55.7585 20.192C53.9645 20.192 52.2625 20.583 50.6525 21.365C49.0885 22.147 47.8235 23.228 46.8575 24.608L41.5445 20.537C43.1085 18.375 45.1325 16.696 47.6165 15.5C50.1005 14.304 52.8605 13.706 55.8965 13.706C61.0025 13.706 64.9355 14.971 67.6955 17.501C70.4555 19.985 71.8355 23.504 71.8355 28.058V50H64.3835V45.791H64.0385C63.0265 47.309 61.6005 48.574 59.7605 49.586C57.9205 50.598 55.8045 51.104 53.4125 51.104ZM54.7235 44.825C56.5635 44.825 58.2195 44.388 59.6915 43.514C61.1635 42.64 62.3135 41.467 63.1415 39.995C63.9695 38.523 64.3835 36.936 64.3835 35.234C63.3255 34.636 62.0835 34.153 60.6575 33.785C59.2775 33.417 57.8285 33.233 56.3105 33.233C53.4585 33.233 51.3655 33.808 50.0315 34.958C48.6975 36.062 48.0305 37.511 48.0305 39.305C48.0305 40.915 48.6515 42.249 49.8935 43.307C51.1355 44.319 52.7455 44.825 54.7235 44.825Z" fill="#EA4335"/>
<path d="M80.1069 0.595999H87.6969V50H80.1069V0.595999Z" fill="#34A853"/>
<path d="M96.6157 0.595999H104.206V29.369H104.413L118.834 14.81H128.356V15.224L114.694 28.817L128.77 49.586V50H119.731L109.381 34.061L104.206 39.098V50H96.6157V0.595999Z" fill="#FDBE05"/>
</svg>
